<?xml version="1.0" encoding="UTF-8"?><svg xmlns="http://www.w3.org/2000/svg" width="1920" height="1080" viewBox="0 0 1920 1080"><defs><style>.cls-1{fill:#372947;}.cls-1,.cls-2,.cls-3,.cls-4,.cls-5,.cls-6,.cls-7,.cls-8,.cls-9{stroke:#000;stroke-miterlimit:10;}.cls-2,.cls-10,.cls-4{fill:none;}.cls-3{fill:#2a1939;}.cls-11{fill:#22feea;}.cls-11,.cls-10,.cls-12,.cls-13,.cls-14,.cls-15,.cls-16,.cls-17,.cls-18,.cls-19,.cls-20,.cls-21,.cls-22,.cls-23,.cls-24,.cls-25,.cls-26,.cls-27,.cls-28,.cls-29,.cls-30{stroke-width:0px;}.cls-12{fill:#ffc987;}.cls-13{fill:#de5d9e;}.cls-14{fill:#85fff4;}.cls-15{fill:#b957cc;}.cls-4{stroke-width:2px;}.cls-16{fill:#564862;}.cls-17{fill:#c0f7c4;}.cls-5{fill:#2e1d3d;}.cls-18{fill:#433351;}.cls-6{fill:#302241;}.cls-19{fill:#11eeda;}.cls-7{fill:#483856;}.cls-20{fill:#d94b92;}.cls-21{fill:#7ee286;}.cls-22{fill:#a6f1ac;}.cls-23{fill:#c477d3;}.cls-24{fill:#ffba60;}.cls-25{fill:#251c33;}.cls-26{fill:#f8a83f;}.cls-27{fill:#a838bf;}.cls-28{fill:#20172e;}.cls-8{fill:#4e405d;}.cls-29{fill:#271e35;}.cls-30{fill:#ec74b1;}.cls-9{fill:#221930;}</style></defs><g id="Layer_2"><polygon class="cls-16" points="0 0 0 1080 1920 1080 1920.88 -.82 0 0"/></g><g id="Layer_3"><polygon class="cls-8" points="0 0 0 1080 1920.5 1080.5 1920.88 -.82 1519.69 0 1485.5 118.5 1336.5 313.5 1284.5 363.5 1226.5 363.5 1026.5 275.5 678.5 395.5 587.5 363.5 535.5 281.5 468.5 268.5 394.5 180.5 433.77 0 0 0"/></g><g id="Layer_4"><polygon class="cls-7" points="0 0 0 1080 1920 1080 1920 267.34 1650.5 312.5 1590.5 451.5 1219.69 557.22 1181.5 549.5 1097.5 429.5 1094.5 398.5 1053.5 339.5 1041 0 948.92 0 948.92 194.1 924 251.85 932.5 615.5 807 639.17 677.44 539.59 714.5 322.5 712.5 232.5 728.5 82.83 707.01 0 685 -.29 685 196.92 638.5 353.5 563 478.61 485.5 495.51 216.5 360.5 0 0"/></g><g id="Layer_12"><polygon class="cls-18" points="960.44 2 968 197 942 255 948.92 605.37 1001 491 1080 435 1017 329.31 1039 243 1030.96 -.82 960.44 2"/><polygon class="cls-18" points="635 490 687 419.45 701 326 701 189.87 715 94 707.01 0 694.34 -.82 701 105 687 222.27 668 296 661 352 579 481 635 490"/><polygon class="cls-18" points="506 632 499 660 557.72 758.89 687 787.65 781.66 785.65 820 796 942 737.25 1013.59 737.25 1059 705 990 679 758.44 670.15 730.5 695.51 609.5 605.37 506 632"/><polygon class="cls-18" points="1030 498 1089 455 1159 546 1094.5 506.77 1030 498"/></g><g id="Layer_20"><polygon class="cls-19" points="1566.69 530.4 1586.13 556.93 1568.64 555.92 1547.93 542.81 1547.99 542.72 1548.7 527.76 1548.7 527.69 1566.69 530.4"/><polygon class="cls-11" points="1568.64 555.92 1497.34 551.81 1497.35 551.66 1496.59 512.3 1496.81 511.81 1515.72 522.41 1526.69 529.36 1544.9 540.89 1547.93 542.81 1568.64 555.92"/><polygon class="cls-11" points="1548.7 527.69 1548.7 527.76 1547.99 542.72 1547.93 542.81 1544.9 540.89 1544.97 540.78 1539.41 511 1548.47 515.81 1548.7 527.69"/><polygon class="cls-14" points="1541.21 501 1548.47 515.81 1539.41 511 1541.21 501"/><polygon class="cls-19" points="1539.41 511 1544.97 540.78 1544.9 540.89 1526.69 529.36 1526.81 529.18 1539.41 511"/><polygon class="cls-14" points="1541.21 501 1539.41 511 1526.46 511.25 1526.4 511.16 1541.21 501"/><polygon class="cls-19" points="1539.41 511 1526.81 529.18 1526.69 529.36 1515.72 522.41 1526.28 511.25 1526.4 511.16 1526.46 511.25 1539.41 511"/><polygon class="cls-19" points="1496.59 512.3 1497.35 551.66 1497.34 551.81 1478.55 550.73 1484.53 538.16 1491.81 522.87 1496.59 512.3"/><polygon class="cls-14" points="1487.22 512 1491.81 522.87 1484.53 538.16 1484.13 537.96 1482.05 536.84 1470.69 512.32 1487.22 512"/><polygon class="cls-19" points="1482.05 536.84 1484.13 537.96 1484.53 538.16 1478.55 550.73 1464.27 549.9 1452.06 521 1452.13 520.76 1482.05 536.84"/><polygon class="cls-11" points="1482.05 536.84 1452.13 520.76 1452.16 520.63 1470.69 512.32 1482.05 536.84"/><polygon class="cls-19" points="1452.06 521 1464.27 549.9 1444.74 548.77 1452.06 521"/><polygon class="cls-2" points="1464.27 549.9 1444.74 548.77 1452.06 521 1452.13 520.76 1452.16 520.63 1470.69 512.32 1487.22 512 1491.81 522.87 1496.59 512.3 1496.81 511.81 1515.72 522.41 1526.28 511.25 1526.4 511.16 1541.21 501 1548.47 515.81 1548.7 527.69 1566.69 530.4 1586.13 556.93 1568.64 555.92 1497.34 551.81 1478.55 550.73 1464.27 549.9"/><polyline class="cls-2" points="1451.91 520.65 1452.06 521 1464.27 549.9 1464.44 550.3"/><polyline class="cls-2" points="1491.81 522.87 1484.53 538.16 1478.55 550.73 1478.4 551.03"/><polyline class="cls-2" points="1451.91 520.65 1452.13 520.76 1482.05 536.84 1484.13 537.96"/><polyline class="cls-2" points="1470.69 512.32 1482.05 536.84 1482.12 537.01"/><polyline class="cls-2" points="1496.58 511.82 1496.59 512.3 1497.35 551.66"/><polyline class="cls-2" points="1515.72 522.41 1526.69 529.36 1544.9 540.89 1547.93 542.81 1568.64 555.92 1569.18 556.26"/><line class="cls-2" x1="1541.21" y1="501" x2="1539.41" y2="511"/><line class="cls-2" x1="1526.46" y1="511.25" x2="1539.41" y2="511"/><line class="cls-2" x1="1548.47" y1="515.81" x2="1539.41" y2="511"/><line class="cls-2" x1="1544.97" y1="540.78" x2="1539.41" y2="511"/><line class="cls-2" x1="1526.81" y1="529.18" x2="1539.41" y2="511"/><line class="cls-2" x1="1548.7" y1="527.76" x2="1547.99" y2="542.72"/></g><g id="Layer_31"><polygon class="cls-1" points="773.5 832.63 929.5 759.39 1016.5 748.12 1177 652 1297 633 1402.5 540.5 1629.05 557.72 1768 614 1920.38 672.06 1919.5 1080.5 686 1080.5 773.5 832.63"/></g><g id="Layer_24"><polygon class="cls-26" points="367.22 411.53 367.34 412.56 348.58 438.54 315.42 426.32 359.21 402.58 367.22 411.53"/><polygon class="cls-24" points="365.65 398.16 367.22 411.53 359.21 402.58 365.65 398.16"/><polygon class="cls-12" points="365.65 398.16 359.21 402.58 345.78 398.79 353.08 396.69 365.65 398.16"/><polygon class="cls-24" points="331.75 403.27 331.68 402.84 345.78 398.79 359.21 402.58 315.42 426.32 286.89 415.81 287.01 415.49 291.26 409.23 322.28 404.66 331.75 403.27"/><polygon class="cls-24" points="331.68 402.84 331.75 403.27 322.28 404.66 322.27 404.64 328.4 368.28 336.52 368.19 331.68 402.84"/><polygon class="cls-12" points="336.59 367.74 336.52 368.19 328.4 368.28 328.45 367.94 332.24 354.47 336.59 367.74"/><polygon class="cls-26" points="322.27 404.64 322.28 404.66 291.26 409.23 318.97 368.39 328.4 368.28 322.27 404.64"/><polygon class="cls-12" points="328.45 367.94 328.4 368.28 318.97 368.39 332.24 354.47 328.45 367.94"/><polygon class="cls-24" points="332.24 354.47 318.97 368.39 312.81 361.61 313.2 361.16 332.24 354.47"/><polygon class="cls-26" points="291.26 409.23 287.01 415.49 286.89 415.81 270.92 409.92 312.81 361.61 318.97 368.39 291.26 409.23"/><polygon class="cls-2" points="286.89 415.81 270.92 409.92 312.81 361.61 313.2 361.16 332.24 354.47 336.59 367.74 336.52 368.19 331.68 402.84 345.78 398.79 353.08 396.69 365.65 398.16 367.22 411.53 367.34 412.56 348.58 438.54 315.42 426.32 286.89 415.81"/><polyline class="cls-2" points="312.63 361.41 312.81 361.61 318.97 368.39"/><polyline class="cls-2" points="336.69 368.19 336.52 368.19 328.4 368.28 318.97 368.39"/><polyline class="cls-2" points="287.01 415.49 291.26 409.23 318.97 368.39"/><polyline class="cls-2" points="332.02 403.23 331.75 403.27 322.28 404.66 291.26 409.23 290.83 409.3"/><polyline class="cls-2" points="359.21 402.58 345.78 398.79 344.78 398.51"/><polyline class="cls-2" points="367.91 412.29 367.22 411.53 359.21 402.58"/><polyline class="cls-2" points="315.08 426.51 315.42 426.32 359.21 402.58"/><line class="cls-2" x1="365.65" y1="398.16" x2="359.21" y2="402.58"/><line class="cls-2" x1="332.24" y1="354.47" x2="328.45" y2="367.94"/><line class="cls-2" x1="318.97" y1="368.39" x2="332.24" y2="354.47"/><polyline class="cls-2" points="328.45 367.94 328.4 368.28 322.27 404.64"/></g><g id="Layer_19"><polygon class="cls-21" points="761.65 792.56 774.28 719.68 806.93 808.9 806.98 808.89 807 808.99 758.16 812.71 761.19 795.24 761.65 792.56"/><polygon class="cls-21" points="806.98 808.89 806.93 808.9 774.28 719.68 785.66 711.52 806.98 808.89"/><polygon class="cls-21" points="758.16 812.71 730.54 814.82 730.54 814.77 746.74 777.32 743.15 771.2 743.8 770.82 759.89 748.6 760.35 760.21 761.19 795.24 758.16 812.71"/><polygon class="cls-22" points="761.65 792.56 760.35 760.21 759.45 722.05 774.28 719.68 761.65 792.56"/><polygon class="cls-21" points="730.54 814.77 730.54 814.82 724.89 815.25 724.88 815.04 724.13 808.37 738.6 777.99 746.74 777.32 730.54 814.77"/><polygon class="cls-21" points="724.13 808.37 724.88 815.04 724.89 815.25 722.41 815.44 687.29 806.82 687.38 806.46 684.05 765.79 704.49 770.77 721.84 792.08 722.29 792.03 724.13 808.37"/><polygon class="cls-22" points="760.35 760.21 759.89 748.6 752.01 742.89 752.05 742.78 750.85 715.82 759.45 722.05 760.35 760.21"/><polygon class="cls-22" points="746.74 777.32 738.6 777.99 731.29 763.95 734.53 756.46 743.15 771.2 746.74 777.32"/><polygon class="cls-22" points="738.6 777.99 724.13 808.37 722.29 792.03 719.9 770.76 731.29 763.95 738.6 777.99"/><polygon class="cls-17" points="759.89 748.6 743.8 770.82 743.15 771.2 734.53 756.46 734.27 756.27 746.79 738.98 752.05 742.78 752.01 742.89 759.89 748.6"/><polygon class="cls-22" points="785.66 711.52 774.28 719.68 764.32 685.14 785.66 711.52"/><polygon class="cls-22" points="719.9 770.76 722.29 792.03 721.84 792.08 704.49 770.77 697.85 733.17 718.4 761.57 718.59 761.31 718.85 761.5 719.9 770.76"/><polygon class="cls-17" points="774.28 719.68 759.45 722.05 764.32 685.14 774.28 719.68"/><polygon class="cls-17" points="734.53 756.46 731.29 763.95 719.9 770.76 718.85 761.5 718.59 761.31 721.28 757.59 734.25 756.3 734.27 756.27 734.53 756.46"/><polygon class="cls-17" points="764.32 685.14 759.45 722.05 750.85 715.82 764.32 685.14"/><polygon class="cls-21" points="687.38 806.46 687.29 806.82 651.9 798.13 684.05 765.79 687.38 806.46"/><polygon class="cls-17" points="704.49 770.77 684.05 765.79 697.85 733.17 704.49 770.77"/><polygon class="cls-17" points="697.85 733.17 684.05 765.79 669.24 748.51 697.85 733.17"/><polygon class="cls-22" points="684.05 765.79 651.9 798.13 637.96 794.71 669.24 748.51 684.05 765.79"/><polygon class="cls-4" points="651.9 798.13 637.96 794.71 669.24 748.51 697.85 733.17 718.4 761.57 718.59 761.31 721.28 757.59 734.25 756.3 734.27 756.27 746.79 738.98 752.05 742.78 750.85 715.82 764.32 685.14 785.66 711.52 806.98 808.89 807 808.99 758.16 812.71 730.54 814.82 724.89 815.25 722.41 815.44 687.29 806.82 651.9 798.13"/><line class="cls-4" x1="785.66" y1="711.52" x2="774.28" y2="719.68"/><line class="cls-4" x1="759.45" y1="722.05" x2="774.28" y2="719.68"/><line class="cls-4" x1="750.85" y1="715.82" x2="759.45" y2="722.05"/><line class="cls-4" x1="764.32" y1="685.14" x2="774.28" y2="719.68"/><line class="cls-4" x1="759.45" y1="722.05" x2="764.32" y2="685.14"/><polyline class="cls-4" points="758.13 812.9 758.16 812.71 761.19 795.24 761.65 792.56 774.28 719.68"/><line class="cls-4" x1="806.93" y1="808.9" x2="774.28" y2="719.68"/><polyline class="cls-4" points="761.22 796.56 761.19 795.24 760.35 760.21 759.45 722.05"/><line class="cls-4" x1="752.01" y1="742.89" x2="759.89" y2="748.6"/><line class="cls-4" x1="743.8" y1="770.82" x2="759.89" y2="748.6"/><polyline class="cls-4" points="762.01 801.5 761.65 792.56 760.35 760.21 759.89 748.6"/><polyline class="cls-4" points="734.53 756.46 743.15 771.2 746.74 777.32"/><line class="cls-4" x1="730.54" y1="814.77" x2="746.74" y2="777.32"/><line class="cls-4" x1="731.29" y1="763.95" x2="734.53" y2="756.46"/><line class="cls-4" x1="738.6" y1="777.99" x2="746.74" y2="777.32"/><polyline class="cls-4" points="718.85 761.5 719.9 770.76 722.29 792.03 724.13 808.37 724.88 815.04"/><line class="cls-4" x1="738.6" y1="777.99" x2="731.29" y2="763.95"/><polyline class="cls-4" points="719.72 770.87 719.9 770.76 731.29 763.95"/><polyline class="cls-4" points="723.89 808.86 724.13 808.37 738.6 777.99"/><line class="cls-4" x1="697.85" y1="733.17" x2="704.49" y2="770.77"/><line class="cls-4" x1="721.84" y1="792.08" x2="704.49" y2="770.77"/><line class="cls-4" x1="684.05" y1="765.79" x2="704.49" y2="770.77"/><line class="cls-4" x1="697.85" y1="733.17" x2="684.05" y2="765.79"/><line class="cls-4" x1="669.24" y1="748.51" x2="684.05" y2="765.79"/><polyline class="cls-4" points="651.83 798.2 651.9 798.13 684.05 765.79"/><line class="cls-4" x1="687.38" y1="806.46" x2="684.05" y2="765.79"/></g><g id="Layer_8"><polygon class="cls-6" points="0 661.7 92.5 587.5 138.5 460.5 263.5 394.5 371.5 448.5 384.86 520.46 476.5 592.5 488.5 667.34 542.5 767.5 653 798.32 767.58 798.32 1329.5 915.23 1516.87 1080 0 1080 0 661.7"/></g><g id="Layer_18"><polygon class="cls-15" points="1268 836.77 1204.08 857.35 1204.05 857.26 1208.01 797.83 1217.47 792.61 1223.11 791.22 1268 836.77"/><polygon class="cls-27" points="1178.95 732.68 1217.47 792.61 1208.01 797.83 1204.05 857.26 1204.08 857.35 1184.77 863.57 1184.67 863.28 1183.02 825.67 1183.34 826.01 1182.98 824.69 1178.95 732.68"/><polygon class="cls-27" points="1184.67 863.28 1184.77 863.57 1158.56 872.02 1158.42 871.6 1140.39 826.05 1134.13 773.43 1183.02 825.67 1184.67 863.28"/><polygon class="cls-15" points="1182.98 824.69 1183.02 825.67 1134.13 773.43 1133.06 764.43 1163.12 752.28 1182.98 824.69"/><polygon class="cls-15" points="1182.98 824.69 1163.12 752.28 1178.95 732.68 1182.98 824.69"/><polygon class="cls-23" points="1178.95 732.68 1163.12 752.28 1131.12 723.81 1131.2 723.37 1178.95 732.68"/><polygon class="cls-27" points="1140.39 826.05 1158.42 871.6 1158.56 872.02 1145.68 876.16 1115.86 786.02 1103.52 889.74 1090.96 893.79 1097.4 847.79 1100.99 822.11 1110.81 751.99 1110.97 751.75 1140.39 826.05"/><polygon class="cls-23" points="1163.12 752.28 1133.06 764.43 1131.12 723.81 1163.12 752.28"/><polygon class="cls-15" points="1115.86 786.02 1145.68 876.16 1103.52 889.74 1115.86 786.02"/><polygon class="cls-15" points="1134.13 773.43 1140.39 826.05 1110.97 751.75 1111.07 751.63 1133.06 764.43 1134.13 773.43"/><polygon class="cls-15" points="1131.12 723.81 1133.06 764.43 1111.07 751.63 1130.65 723.26 1131.2 723.37 1131.12 723.81"/><polygon class="cls-27" points="1097.4 847.79 1090.96 893.79 1062.25 816.81 1062.48 816.72 1081.74 819.42 1097.4 847.79"/><polygon class="cls-15" points="1100.99 822.11 1097.4 847.79 1081.74 819.42 1086.9 805.96 1100.99 822.11"/><polygon class="cls-23" points="1086.9 805.96 1081.74 819.42 1062.48 816.72 1062.25 816.81 1062.21 816.68 1065.22 795.13 1086.9 805.96"/><polygon class="cls-4" points="1090.96 893.79 1062.25 816.81 1062.21 816.68 1065.22 795.13 1086.9 805.96 1100.99 822.11 1110.81 751.99 1110.97 751.75 1111.07 751.63 1130.65 723.26 1131.2 723.37 1178.95 732.68 1217.47 792.61 1223.11 791.22 1268 836.77 1204.08 857.35 1184.77 863.57 1158.56 872.02 1145.68 876.16 1103.52 889.74 1090.96 893.79"/><line class="cls-4" x1="1133.06" y1="764.43" x2="1131.12" y2="723.81"/><line class="cls-4" x1="1163.12" y1="752.28" x2="1131.12" y2="723.81"/><line class="cls-4" x1="1178.95" y1="732.68" x2="1163.12" y2="752.28"/><line class="cls-4" x1="1133.06" y1="764.43" x2="1163.12" y2="752.28"/><polyline class="cls-4" points="1110.88 751.51 1111.07 751.63 1133.06 764.43"/><polyline class="cls-4" points="1158.42 871.6 1140.39 826.05 1110.97 751.75 1110.88 751.51"/><polyline class="cls-4" points="1090.96 893.79 1097.4 847.79 1100.99 822.11"/><polyline class="cls-4" points="1115.86 786.02 1103.52 889.74 1103.48 890.08"/><polyline class="cls-4" points="1145.75 876.37 1145.68 876.16 1115.86 786.02"/><line class="cls-4" x1="1081.74" y1="819.42" x2="1086.9" y2="805.96"/><line class="cls-4" x1="1062.48" y1="816.72" x2="1081.74" y2="819.42"/><line class="cls-4" x1="1097.4" y1="847.79" x2="1081.74" y2="819.42"/><polyline class="cls-4" points="1184.67 863.28 1183.02 825.67 1182.98 824.69 1178.95 732.68"/><polyline class="cls-4" points="1133.06 764.43 1134.13 773.43 1140.39 826.05 1140.57 827.65"/><polyline class="cls-4" points="1183.34 826.01 1183.02 825.67 1134.13 773.43 1134.01 773.29"/><polyline class="cls-4" points="1183.34 826.01 1182.98 824.69 1163.12 752.28"/><line class="cls-4" x1="1208.01" y1="797.83" x2="1217.47" y2="792.61"/><line class="cls-4" x1="1204.05" y1="857.26" x2="1208.01" y2="797.83"/></g><g id="Layer_9"><polygon class="cls-3" points="1680.5 1079.5 1552.5 792.5 1614.5 737.25 1552.5 706.77 1509.83 706.77 1509.83 689.87 1487.5 675.5 1478.5 640.5 1416.5 682.5 1360.5 698.5 1343.5 730.5 1280.5 753.5 1280.5 778.61 1190.5 850.5 1153.5 851.5 1125.5 885.5 1022.5 892.5 911.5 941.5 758.44 916.63 526.73 941.98 350.68 1080 1680.5 1079.5"/></g><g id="Layer_14"><polygon class="cls-9" points="1232.37 0 1278.85 85.37 1307.13 85.37 1329.5 171.56 1422.51 164.5 1456 108 1516.5 122.5 1595.5 210.5 1770.5 206.5 1921.5 277.5 1920.88 -.82 1232.37 0"/></g><g id="Layer_16"><polygon class="cls-13" points="368 792 366.8 793.35 409 630 395.06 789.36 385.08 801.07 385 801 368.5 792.5 368 792"/><polygon class="cls-20" points="366.8 793.35 337.36 826.32 337 826 335.56 785.02 336 785 391 626 409 630 366.8 793.35"/><polygon class="cls-20" points="366.8 793.35 368 792 368.5 792.5 385 801 385.08 801.07 334 861 333.81 861.23 317.96 848.05 318 848 337.36 826.32 366.8 793.35"/><polygon class="cls-13" points="514 858 518 845 545.5 920.5 514 858"/><polygon class="cls-20" points="514 858 545.5 920.5 409.48 924.18 372 893 401.76 825.89 402 826 452 784 455 796 455.26 796 471 916 514 858"/><polygon class="cls-13" points="474 870 471 916 455.26 796 471.7 796 474.12 870 474 870"/><polygon class="cls-20" points="493.53 879.4 504 853 514 858 471 916 490.76 883.89 491.5 884.5 493.53 879.4"/><polygon class="cls-30" points="518 845 514 858 504 853 518 845"/><polygon class="cls-30" points="455.26 796 455 796 452 784 451 752 471.7 796 455.26 796"/><polygon class="cls-30" points="451 752 452 784 419 787 451 752"/><polygon class="cls-13" points="452 784 402 826 401.76 825.89 419 787 452 784"/><polygon class="cls-13" points="414.49 770.25 436.48 759.26 451 752 419 787 409 773 414.49 770.25"/><polygon class="cls-30" points="451 752 436.48 759.26 428 628 438 619 438.13 618.99 444 754 451 752"/><polygon class="cls-30" points="438 616 438.13 618.99 438 619 428 628 405 580 438 616"/><polygon class="cls-13" points="428 628 436.48 759.26 414.49 770.25 409 630 428 628"/><polygon class="cls-30" points="405 580 428 628 409 630 405 580"/><polygon class="cls-20" points="395.06 789.36 409 773 419 787 401.76 825.89 372 893 333.81 861.23 334 861 385.08 801.07 395.06 789.36"/><polygon class="cls-13" points="409 630 414.49 770.25 409 773 395.06 789.36 409 630"/><polygon class="cls-30" points="405 580 409 630 391 626 405 580"/><polygon class="cls-13" points="405 580 391 626 374 612 405 580"/><polygon class="cls-20" points="391 626 336 785 335.56 785.02 335 769 323.76 763.59 325 761 374 612 391 626"/><polygon class="cls-20" points="291.04 775.79 308 756 337 826 337.36 826.32 318 848 317.96 848.05 266.09 804.9 283.08 785.07 291.04 775.79"/><polygon class="cls-30" points="335.56 785.02 337 826 308 756 310.83 757.36 323.76 763.59 335 769 335.56 785.02"/><polygon class="cls-30" points="315 677 325 761 323.76 763.59 310.83 757.36 311 757 308 681 307.95 680.92 315 677"/><polygon class="cls-30" points="315 677 307.95 680.92 292.75 657.18 315 677"/><polygon class="cls-13" points="308 681 311 757 310.83 757.36 308 756 291.04 775.79 308 681"/><polygon class="cls-13" points="307.95 680.92 308 681 291.04 775.79 283.08 785.07 283 785 294 686 293.98 685.66 297 687 307.95 680.92"/><polygon class="cls-30" points="292.75 657.18 307.95 680.92 297 687 293.98 685.66 292.04 656.54 292.75 657.18"/><polygon class="cls-20" points="293.98 685.66 294 686 283 785 283.08 785.07 266.09 804.9 255.39 796 279 679 293.98 685.66"/><polygon class="cls-13" points="292.04 656.54 293.98 685.66 279 679 291.5 656.06 292.04 656.54"/><polygon class="cls-4" points="266.09 804.9 255.39 796 279 679 291.5 656.06 292.04 656.54 292.75 657.18 315 677 325 761 374 612 405 580 438 616 438.13 618.99 444 754 451 752 471.7 796 474.12 870 474.13 870.15 490.76 883.89 491.5 884.5 493.53 879.4 504 853 518 845 545.5 920.5 409.48 924.18 372 893 333.81 861.23 317.96 848.05 266.09 804.9"/><polyline class="cls-4" points="279 679 293.98 685.66 297 687"/><polyline class="cls-4" points="315 677 307.95 680.92 297 687"/><polyline class="cls-4" points="292 656 292.04 656.54 293.98 685.66 294 686"/><polyline class="cls-4" points="308 681 307.95 680.92 292.75 657.18 292 656"/><line class="cls-4" x1="374" y1="612" x2="391" y2="626"/><line class="cls-4" x1="409" y1="630" x2="391" y2="626"/><line class="cls-4" x1="428" y1="628" x2="409" y2="630"/><line class="cls-4" x1="438" y1="619" x2="428" y2="628"/><line class="cls-4" x1="405" y1="580" x2="428" y2="628"/><line class="cls-4" x1="391" y1="626" x2="405" y2="580"/><line class="cls-4" x1="409" y1="630" x2="405" y2="580"/><polyline class="cls-4" points="409 630 366.8 793.35 366.5 794.5"/><polyline class="cls-4" points="318 848 337.36 826.32 366.8 793.35 368 792"/><polyline class="cls-4" points="428 628 436.48 759.26 436.5 759.5"/><polyline class="cls-4" points="409 773 414.49 770.25 436.48 759.26 451 752"/><line class="cls-4" x1="419" y1="787" x2="409" y2="773"/><line class="cls-4" x1="451" y1="752" x2="419" y2="787"/><line class="cls-4" x1="452" y1="784" x2="451" y2="752"/><line class="cls-4" x1="419" y1="787" x2="452" y2="784"/><line class="cls-4" x1="455" y1="796" x2="452" y2="784"/><polyline class="cls-4" points="472 796 471.7 796 455.26 796 455 796"/><polyline class="cls-4" points="471 916 455.26 796 455 794"/><polyline class="cls-4" points="409 773 395.06 789.36 385.08 801.07 334 861"/><line class="cls-4" x1="385" y1="801" x2="368.5" y2="792.5"/><polyline class="cls-4" points="409 630 395.06 789.36 395 790"/><polyline class="cls-4" points="419 787 401.76 825.89 372 893"/><line class="cls-4" x1="452" y1="784" x2="402" y2="826"/><polyline class="cls-4" points="308 756 291.04 775.79 283.08 785.07 266.09 804.9 266 805"/><polyline class="cls-4" points="335 769 323.76 763.59 310.83 757.36 308 756"/><polyline class="cls-4" points="337 826 335.56 785.02 335 769"/><line class="cls-4" x1="308" y1="756" x2="337" y2="826"/><line class="cls-4" x1="294" y1="686" x2="283" y2="785"/><polyline class="cls-4" points="308 681 291.04 775.79 291 776"/><line class="cls-4" x1="311" y1="757" x2="308" y2="681"/><line class="cls-4" x1="391" y1="626" x2="336" y2="785"/><line class="cls-4" x1="518" y1="845" x2="514" y2="858"/><line class="cls-4" x1="504" y1="853" x2="514" y2="858"/><line class="cls-4" x1="545.5" y1="920.5" x2="514" y2="858"/><line class="cls-4" x1="471" y1="916" x2="514" y2="858"/><line class="cls-4" x1="474" y1="870" x2="471" y2="916"/><polyline class="cls-4" points="495 877 493.53 879.4 490.76 883.89 471 916"/></g><g id="Layer_10"><polygon class="cls-10" points="1232.37 0 1284 77 1304.2 77 1335 165 1415 157 1456 108 1516.87 108.18 1621 193 1634 226 1611 239 1581.66 394.5 1594.94 441.22 1676.5 472.97 1689 517 1763 576 1776 663 1920.88 785.65 1920.88 0 1232.37 0"/><polygon class="cls-28" points="1332 1079 1377.23 1003.74 1466.56 922.23 1790.33 768 1920.88 791.48 1919.84 1080 1332 1079"/><polygon class="cls-28" points="0 765.93 157.72 785.65 209.83 765.93 407 828 708 1017 781.66 1082.44 0 1080 0 765.93"/><polygon class="cls-9" points="0 156.74 224.59 128.65 363.46 204.28 450.4 131.89 483 -1 0 .08 0 156.74"/></g><g id="Layer_13"><polygon class="cls-29" points="239.41 796 445 989.87 566 1039.17 704 1028 407 839 239.41 796"/><polygon class="cls-25" points="250.5 833.5 321.5 903.5 187.5 1023.5 112.5 1029.5 133.5 994.5 140.82 947.5 250.5 833.5"/><polygon class="cls-25" points="366.17 947.5 329.55 917.58 249.5 984.5 366.17 947.5"/><polygon class="cls-25" points="1502.63 929.76 1668.06 858 1814.11 858 1572 1026.92 1409 1036.92 1502.63 929.76"/><polygon class="cls-25" points="1625.86 1015.34 1828.53 879.42 1850.58 897.55 1728.1 1006.96 1625.86 1015.34"/></g><g id="Layer_25"><polygon class="cls-5" points="1130.81 904.17 1159 866.92 1204.05 857.26 1299.36 777.66 1299.36 762.5 1357.15 737.25 1357.15 715.6 1401.17 700.68 1380.54 737.25 1395.67 765.93 1335.13 827.55 1285.61 840.44 1245.71 882.85 1130.81 904.17"/></g></svg>