<?xml version="1.0" encoding="UTF-8"?><svg xmlns="http://www.w3.org/2000/svg" width="1920" height="1080" viewBox="0 0 1920 1080"><defs><style>.cls-1{fill:#564862;}.cls-1,.cls-2{stroke-width:0px;}.cls-2{fill:#433351;}.cls-3{fill:#483856;}.cls-3,.cls-4{stroke:#000;stroke-miterlimit:10;}.cls-4{fill:#4e405d;}</style></defs><g id="Layer_2"><polygon class="cls-1" points="0 0 0 1080 1920 1080 1920.88 -.82 0 0"/></g><g id="Layer_3"><polygon class="cls-4" points="0 0 0 1080 1920.5 1080.5 1920.88 -.82 1519.69 0 1485.5 118.5 1336.5 313.5 1284.5 363.5 1226.5 363.5 1026.5 275.5 678.5 395.5 587.5 363.5 535.5 281.5 468.5 268.5 394.5 180.5 433.77 0 0 0"/></g><g id="Layer_4"><polygon class="cls-3" points="0 0 0 1080 1920 1080 1920 267.34 1650.5 312.5 1590.5 451.5 1219.69 557.22 1181.5 549.5 1097.5 429.5 1094.5 398.5 1053.5 339.5 1041 0 948.92 0 948.92 194.1 924 251.85 932.5 615.5 807 639.17 677.44 539.59 714.5 322.5 712.5 232.5 728.5 82.83 707.01 0 685 -.29 685 196.92 638.5 353.5 563 478.61 485.5 495.51 216.5 360.5 0 0"/></g><g id="Layer_12"><polygon class="cls-2" points="960.44 2 968 197 942 255 948.92 605.37 1001 491 1080 435 1017 329.31 1039 243 1030.96 -.82 960.44 2"/><polygon class="cls-2" points="635 490 687 419.45 701 326 701 189.87 715 94 707.01 0 694.34 -.82 701 105 687 222.27 668 296 661 352 579 481 635 490"/><polygon class="cls-2" points="506 632 499 660 557.72 758.89 687 787.65 781.66 785.65 820 796 942 737.25 1013.59 737.25 1059 705 990 679 758.44 670.15 730.5 695.51 609.5 605.37 506 632"/><polygon class="cls-2" points="1030 498 1089 455 1159 546 1094.5 506.77 1030 498"/></g></svg>