<?xml version="1.0" encoding="UTF-8"?><svg id="Layer_8" xmlns="http://www.w3.org/2000/svg" width="1648.23" height="992.79" viewBox="0 0 1648.23 992.79"><defs><style>.cls-1{fill:#de5d9e;}.cls-1,.cls-2,.cls-3{stroke-width:0px;}.cls-4{fill:none;stroke:#000;stroke-linecap:round;stroke-linejoin:round;stroke-width:3px;}.cls-2{fill:#d94b92;}.cls-3{fill:#ec74b1;}</style></defs><polygon class="cls-1" points="1082.2 171.42 1173.73 312.34 991.05 369.26 965.29 308.36 1082.2 171.42"/><polygon class="cls-1" points="1173.73 312.34 1131.48 527.86 974.47 458.23 974.23 458.19 991.05 369.26 1173.73 312.34"/><polygon class="cls-2" points="1131.48 527.86 838.88 842.6 834.13 587.07 974.02 459.31 974.23 458.19 974.47 458.23 1131.48 527.86"/><polygon class="cls-1" points="1081.64 170.55 1082.2 171.42 965.29 308.36 913.76 291.97 960.46 130.13 1081.64 170.55"/><polygon class="cls-3" points="702.55 310.68 703.02 309.81 756.74 296.74 832.3 321.92 832.3 321.95 833.4 322.3 913.76 291.97 965.29 308.36 991.05 369.26 974.23 458.19 974.02 459.31 834.13 587.07 677.21 462.94 667.84 376.28 702.55 310.68"/><polygon class="cls-1" points="960.46 130.13 913.76 291.97 833.4 322.3 832.3 321.95 832.3 321.92 829.35 190.11 830.43 190.46 960.46 130.13"/><polygon class="cls-2" points="834.13 587.07 838.88 842.6 521.2 581.12 677.21 462.94 834.13 587.07"/><polygon class="cls-1" points="829.35 190.11 832.3 321.92 756.74 296.74 698.26 146.38 829.35 190.11"/><polygon class="cls-1" points="698.26 146.38 756.74 296.74 703.02 309.81 702.55 310.68 553.82 187.11 698.26 146.38"/><polygon class="cls-1" points="702.55 310.68 667.84 376.28 461.24 338.93 553.82 187.11 702.55 310.68"/><polygon class="cls-2" points="667.84 376.28 677.21 462.94 521.2 581.12 461.24 338.93 667.84 376.28"/><polygon class="cls-4" points="838.88 842.6 521.2 581.12 461.24 338.93 553.82 187.11 698.26 146.38 829.35 190.11 830.43 190.46 960.46 130.13 1081.64 170.55 1082.2 171.42 1173.73 312.34 1131.48 527.86 838.88 842.6"/><polyline class="cls-4" points="832.3 321.95 833.4 322.3 913.76 291.97 965.29 308.36 991.05 369.26 974.23 458.19 974.02 459.31 834.13 587.07 677.21 462.94 667.84 376.28 702.55 310.68 703.02 309.81 756.74 296.74 832.3 321.92"/><polyline class="cls-4" points="553.82 187.11 702.55 310.68 702.69 310.8"/><line class="cls-4" x1="698.26" y1="146.38" x2="756.74" y2="296.74"/><polyline class="cls-4" points="829.35 190.11 832.3 321.92 832.3 321.95"/><line class="cls-4" x1="960.46" y1="130.13" x2="913.76" y2="291.97"/><polyline class="cls-4" points="1082.65 170.88 1082.2 171.42 965.29 308.36"/><line class="cls-4" x1="1173.73" y1="312.34" x2="991.05" y2="369.26"/><line class="cls-4" x1="1131.48" y1="527.86" x2="974.47" y2="458.23"/><line class="cls-4" x1="838.88" y1="842.6" x2="834.13" y2="587.07"/><line class="cls-4" x1="521.2" y1="581.12" x2="677.21" y2="462.94"/><line class="cls-4" x1="461.24" y1="338.93" x2="667.84" y2="376.28"/></svg>