<?xml version="1.0" encoding="UTF-8"?><svg id="Layer_2" xmlns="http://www.w3.org/2000/svg" width="1648.23" height="992.79" viewBox="0 0 1648.23 992.79"><defs><style>.cls-1{stroke-miterlimit:10;}.cls-1,.cls-2{fill:none;stroke:#000;stroke-width:3px;}.cls-3{fill:#b957cc;}.cls-3,.cls-4,.cls-5{stroke-width:0px;}.cls-2{stroke-linecap:round;stroke-linejoin:round;}.cls-4{fill:#c477d3;}.cls-5{fill:#a838bf;}</style></defs><polygon class="cls-3" points="913.4 343.36 913.4 557.36 913.15 557.6 864.71 527.95 865.07 527.61 865.07 372.11 864.72 371.77 913.14 343.11 913.4 343.36"/><polygon class="cls-5" points="913.15 557.6 800.07 664.36 799.56 663.87 799.57 663.86 799.57 587.89 800.07 588.36 864.71 527.95 913.15 557.6"/><polygon class="cls-3" points="913.14 343.11 864.72 371.77 800.07 308.36 799.57 307.86 799.57 236.83 800.07 236.36 913.14 343.11"/><polygon class="cls-4" points="864.71 527.95 800.07 588.36 799.57 587.89 735.07 527.61 735.07 372.11 735.42 371.77 800.07 308.36 864.72 371.77 865.07 372.11 865.07 527.61 864.71 527.95"/><polygon class="cls-3" points="800.07 308.36 735.42 371.77 687 343.11 799.57 236.83 799.57 307.86 800.07 308.36"/><polygon class="cls-5" points="799.57 587.89 799.57 663.86 799.56 663.87 686.74 557.36 686.74 556.76 734.57 527.86 735.07 527.61 799.57 587.89"/><polygon class="cls-5" points="735.42 371.77 735.07 372.11 735.07 527.61 734.57 527.86 686.74 556.76 686.74 343.36 687 343.11 735.42 371.77"/><polygon class="cls-1" points="913.14 343.11 913.4 343.36 913.4 557.36 913.15 557.6 800.07 664.36 799.56 663.87 686.74 557.36 686.74 556.76 686.74 343.36 687 343.11 799.57 236.83 800.07 236.36 913.14 343.11"/><polygon class="cls-2" points="864.72 371.77 865.07 372.11 865.07 527.61 864.71 527.95 800.07 588.36 799.57 587.89 735.07 527.61 735.07 372.11 735.42 371.77 800.07 308.36 864.72 371.77"/><polyline class="cls-2" points="686.57 342.86 687 343.11 735.42 371.77 735.57 371.86"/><polyline class="cls-2" points="799.57 235.86 799.57 236.83 799.57 307.86"/><polyline class="cls-2" points="913.57 342.86 913.14 343.11 864.72 371.77 864.57 371.86"/><polyline class="cls-2" points="913.57 557.86 913.15 557.6 864.71 527.95 864.57 527.86"/><polyline class="cls-2" points="799.57 663.86 799.57 587.89 799.57 587.86"/><polyline class="cls-2" points="686.57 556.86 686.74 556.76 734.57 527.86"/></svg>