<?xml version="1.0" encoding="UTF-8"?><svg id="Layer_6" xmlns="http://www.w3.org/2000/svg" width="1648.23" height="992.79" viewBox="0 0 1648.23 992.79"><defs><style>.cls-1{fill:#22feea;}.cls-1,.cls-2,.cls-3{stroke-width:0px;}.cls-2{fill:#85fff4;}.cls-4{fill:none;stroke:#000;stroke-linecap:round;stroke-linejoin:round;stroke-width:3px;}.cls-3{fill:#11eeda;}</style></defs><polygon class="cls-1" points="1011.16 361.36 1011.16 634.36 960.16 583.36 960.16 412.36 1011.16 361.36"/><polygon class="cls-1" points="1011.16 361.36 960.16 412.36 789.16 412.36 738.16 361.36 1011.16 361.36"/><polygon class="cls-3" points="1011.16 634.36 738.16 634.36 789.16 583.36 960.16 583.36 1011.16 634.36"/><rect class="cls-2" x="789.16" y="412.36" width="171" height="171"/><polygon class="cls-3" points="789.16 412.36 789.16 583.36 738.16 634.36 738.16 361.36 789.16 412.36"/><rect class="cls-4" x="738.16" y="361.36" width="273" height="273"/><rect class="cls-4" x="789.16" y="412.36" width="171" height="171"/><line class="cls-4" x1="738.16" y1="361.36" x2="789.16" y2="412.36"/><line class="cls-4" x1="1011.16" y1="361.36" x2="960.16" y2="412.36"/><line class="cls-4" x1="1011.16" y1="634.36" x2="960.16" y2="583.36"/><line class="cls-4" x1="738.16" y1="634.36" x2="789.16" y2="583.36"/></svg>