<?xml version="1.0" encoding="UTF-8"?><svg id="Layer_5" xmlns="http://www.w3.org/2000/svg" width="1648.23" height="992.79" viewBox="0 0 1648.23 992.79"><defs><style>.cls-1{fill:#de5d9e;}.cls-1,.cls-2,.cls-3{stroke-width:0px;}.cls-4{fill:none;stroke:#000;stroke-linecap:round;stroke-linejoin:round;stroke-width:3px;}.cls-2{fill:#d94b92;}.cls-3{fill:#ec74b1;}</style></defs><polygon class="cls-1" points="900.19 349.46 900.19 546.61 900.1 546.73 864.56 525.72 864.26 525.72 864.26 372.64 864.56 372.64 900.02 349.26 900.19 349.46"/><polygon class="cls-2" points="900.1 546.73 857.38 596.6 857.04 596.6 836.21 558.93 836.15 558.53 864.26 526.09 864.26 525.72 864.56 525.72 900.1 546.73"/><polygon class="cls-1" points="900.02 349.26 864.56 372.64 864.26 372.64 864.26 372.52 836.22 341.03 857.27 302.17 857.53 301.94 900.02 349.26"/><polygon class="cls-3" points="836.22 341.03 864.26 372.52 864.26 372.64 864.26 525.72 864.26 526.09 836.15 558.53 777.08 558.53 776.83 558.53 746.96 526.69 746.96 526.62 746.96 372.54 746.96 372.52 778.02 341.18 778.24 340.94 836.15 340.94 836.22 341.03"/><polygon class="cls-1" points="857.53 301.94 857.27 302.17 836.22 341.03 836.15 340.94 778.24 340.94 778.02 341.18 777.89 341.05 757.64 302.17 757.64 301.77 857.38 301.77 857.53 301.94"/><polygon class="cls-2" points="836.21 558.93 857.04 596.6 756.3 596.6 756.26 596.56 777.08 558.93 777.08 558.53 836.15 558.53 836.21 558.93"/><polygon class="cls-1" points="778.02 341.18 746.96 372.52 746.96 372.54 710.85 349.27 757.29 301.77 757.64 301.77 757.64 302.17 777.89 341.05 778.02 341.18"/><polygon class="cls-2" points="777.08 558.53 777.08 558.93 756.26 596.56 710.75 547.54 746.96 526.62 746.96 526.69 776.83 558.53 777.08 558.53"/><polygon class="cls-2" points="746.96 372.54 746.96 526.62 710.75 547.54 710.66 547.44 710.66 349.46 710.85 349.27 746.96 372.54"/><polygon class="cls-4" points="710.85 349.27 710.66 349.46 710.66 547.44 710.75 547.54 756.26 596.56 756.3 596.6 857.04 596.6 857.38 596.6 900.1 546.73 900.19 546.61 900.19 349.46 900.02 349.26 857.53 301.94 857.38 301.77 757.64 301.77 757.29 301.77 710.85 349.27"/><polygon class="cls-4" points="778.02 341.18 746.96 372.52 746.96 372.54 746.96 526.62 746.96 526.69 776.83 558.53 777.08 558.53 836.15 558.53 864.26 526.09 864.26 525.72 864.26 372.64 864.26 372.52 836.22 341.03 836.15 340.94 778.24 340.94 778.02 341.18"/><polyline class="cls-4" points="777.08 558.93 756.26 596.56 756.02 597"/><polyline class="cls-4" points="836.21 558.93 857.04 596.6 857.27 597"/><polyline class="cls-4" points="747.11 526.53 746.96 526.62 710.75 547.54 710.66 547.59"/><polyline class="cls-4" points="864.56 525.72 900.1 546.73 900.19 546.78"/><polyline class="cls-4" points="747.11 372.64 746.96 372.54 710.85 349.27 710.66 349.15"/><polyline class="cls-4" points="836.21 341.05 836.22 341.03 857.27 302.17"/><line class="cls-4" x1="757.64" y1="302.17" x2="777.89" y2="341.05"/><polyline class="cls-4" points="900.19 349.15 900.02 349.26 864.56 372.64"/></svg>