<?xml version="1.0" encoding="UTF-8"?><svg id="Layer_3" xmlns="http://www.w3.org/2000/svg" width="1648.23" height="992.79" viewBox="0 0 1648.23 992.79"><defs><style>.cls-1{fill:#c0f7c4;}.cls-1,.cls-2,.cls-3{stroke-width:0px;}.cls-4{fill:none;stroke:#000;stroke-linecap:round;stroke-linejoin:round;stroke-width:3px;}.cls-2{fill:#7ee286;}.cls-3{fill:#a6f1ac;}</style></defs><polygon class="cls-3" points="1007.91 423.11 1008.91 572.18 1008.81 572.28 958.41 544.61 958.24 544.43 958.53 544.15 957.91 450.98 958.41 450.61 1007.76 422.97 1007.91 423.11"/><polygon class="cls-2" points="1008.81 572.28 950.68 627.89 950.41 627.61 922.41 579.61 922 579.11 958.24 544.43 958.41 544.61 1008.81 572.28"/><polygon class="cls-3" points="950.45 368.11 1007.76 422.97 958.41 450.61 957.91 450.98 922.21 416.81 922.41 416.61 950.12 368.11 950.45 368.11"/><polygon class="cls-1" points="957.91 450.98 958.53 544.15 958.24 544.43 922 579.11 826.74 579.11 790.57 544.44 790.41 544.29 790.41 451.65 790.43 451.63 826.57 416.77 826.74 416.61 922 416.61 922.21 416.81 957.91 450.98"/><polygon class="cls-2" points="950.41 627.61 950.68 627.89 950.45 628.11 798.41 628.11 798.41 627.61 826.41 579.61 826.74 579.11 922 579.11 922.41 579.61 950.41 627.61"/><polygon class="cls-3" points="950.12 368.11 922.41 416.61 922.21 416.81 922 416.61 826.74 416.61 826.57 416.77 826.41 416.61 798.7 368.11 950.12 368.11"/><polygon class="cls-2" points="826.74 579.11 826.41 579.61 798.41 627.61 798.41 628.11 798.04 628.11 740.28 572.75 740.41 572.61 790.41 544.61 790.57 544.44 826.74 579.11"/><polygon class="cls-3" points="826.57 416.77 790.43 451.63 790.41 451.61 740.41 424.61 739.91 424.61 739.91 424.18 798.04 368.11 798.7 368.11 826.41 416.61 826.57 416.77"/><polygon class="cls-2" points="790.57 544.44 790.41 544.61 740.41 572.61 740.28 572.75 739.91 572.39 739.91 424.61 740.41 424.61 790.41 451.61 790.43 451.63 790.41 451.65 790.41 544.29 790.57 544.44"/><polygon class="cls-4" points="1007.76 422.97 950.45 368.11 950.12 368.11 798.7 368.11 798.04 368.11 739.91 424.18 739.91 424.61 739.91 572.39 740.28 572.75 798.04 628.11 798.41 628.11 950.45 628.11 950.68 627.89 1008.81 572.28 1008.91 572.18 1007.91 423.11 1007.76 422.97"/><polygon class="cls-4" points="922.21 416.81 922 416.61 826.74 416.61 826.57 416.77 790.43 451.63 790.41 451.65 790.41 544.29 790.57 544.44 826.74 579.11 922 579.11 958.24 544.43 958.53 544.15 957.91 450.98 922.21 416.81"/><line class="cls-4" x1="740.41" y1="424.61" x2="790.41" y2="451.61"/><polyline class="cls-4" points="950.41 367.61 950.12 368.11 922.41 416.61"/><polyline class="cls-4" points="1008.41 422.61 1007.76 422.97 958.41 450.61"/><line class="cls-4" x1="950.41" y1="627.61" x2="922.41" y2="579.61"/><polyline class="cls-4" points="1009.41 572.61 1008.81 572.28 958.41 544.61"/><line class="cls-4" x1="798.41" y1="627.61" x2="826.41" y2="579.61"/><line class="cls-4" x1="740.41" y1="572.61" x2="790.41" y2="544.61"/><polyline class="cls-4" points="826.41 416.61 798.7 368.11 798.41 367.61"/></svg>