<?xml version="1.0" encoding="UTF-8"?><svg xmlns="http://www.w3.org/2000/svg" width="1920" height="1080" viewBox="0 0 1920 1080"><defs><style>.cls-1{fill:#372947;}.cls-1,.cls-2,.cls-3,.cls-4{stroke:#000;stroke-miterlimit:10;}.cls-2,.cls-3{fill:none;}.cls-5{fill:#22feea;}.cls-5,.cls-6,.cls-7,.cls-8,.cls-9,.cls-10,.cls-11,.cls-12,.cls-13{stroke-width:0px;}.cls-6{fill:#ffc987;}.cls-7{fill:#85fff4;}.cls-3{stroke-width:2px;}.cls-8{fill:#c0f7c4;}.cls-4{fill:#302241;}.cls-9{fill:#11eeda;}.cls-10{fill:#7ee286;}.cls-11{fill:#a6f1ac;}.cls-12{fill:#ffba60;}.cls-13{fill:#f8a83f;}</style></defs><g id="Layer_20"><polygon class="cls-9" points="1566.69 530.4 1586.13 556.93 1568.64 555.92 1547.93 542.81 1547.99 542.72 1548.7 527.76 1548.7 527.69 1566.69 530.4"/><polygon class="cls-5" points="1568.64 555.92 1497.34 551.81 1497.35 551.66 1496.59 512.3 1496.81 511.81 1515.72 522.41 1526.69 529.36 1544.9 540.89 1547.93 542.81 1568.64 555.92"/><polygon class="cls-5" points="1548.7 527.69 1548.7 527.76 1547.99 542.72 1547.93 542.81 1544.9 540.89 1544.97 540.78 1539.41 511 1548.47 515.81 1548.7 527.69"/><polygon class="cls-7" points="1541.21 501 1548.47 515.81 1539.41 511 1541.21 501"/><polygon class="cls-9" points="1539.41 511 1544.97 540.78 1544.9 540.89 1526.69 529.36 1526.81 529.18 1539.41 511"/><polygon class="cls-7" points="1541.21 501 1539.41 511 1526.46 511.25 1526.4 511.16 1541.21 501"/><polygon class="cls-9" points="1539.41 511 1526.81 529.18 1526.69 529.36 1515.72 522.41 1526.28 511.25 1526.4 511.16 1526.46 511.25 1539.41 511"/><polygon class="cls-9" points="1496.59 512.3 1497.35 551.66 1497.34 551.81 1478.55 550.73 1484.53 538.16 1491.81 522.87 1496.59 512.3"/><polygon class="cls-7" points="1487.22 512 1491.81 522.87 1484.53 538.16 1484.13 537.96 1482.05 536.84 1470.69 512.32 1487.22 512"/><polygon class="cls-9" points="1482.05 536.84 1484.13 537.96 1484.53 538.16 1478.55 550.73 1464.27 549.9 1452.06 521 1452.13 520.76 1482.05 536.84"/><polygon class="cls-5" points="1482.05 536.84 1452.13 520.76 1452.16 520.63 1470.69 512.32 1482.05 536.84"/><polygon class="cls-9" points="1452.06 521 1464.27 549.9 1444.74 548.77 1452.06 521"/><polygon class="cls-2" points="1464.27 549.9 1444.74 548.77 1452.06 521 1452.13 520.76 1452.16 520.63 1470.69 512.32 1487.22 512 1491.81 522.87 1496.59 512.3 1496.81 511.81 1515.72 522.41 1526.28 511.25 1526.4 511.16 1541.21 501 1548.47 515.81 1548.7 527.69 1566.69 530.4 1586.13 556.93 1568.64 555.92 1497.34 551.81 1478.55 550.73 1464.27 549.9"/><polyline class="cls-2" points="1451.91 520.65 1452.06 521 1464.27 549.9 1464.44 550.3"/><polyline class="cls-2" points="1491.81 522.87 1484.53 538.16 1478.55 550.73 1478.4 551.03"/><polyline class="cls-2" points="1451.91 520.65 1452.13 520.76 1482.05 536.84 1484.13 537.96"/><polyline class="cls-2" points="1470.69 512.32 1482.05 536.84 1482.12 537.01"/><polyline class="cls-2" points="1496.58 511.82 1496.59 512.3 1497.35 551.66"/><polyline class="cls-2" points="1515.72 522.41 1526.69 529.36 1544.9 540.89 1547.93 542.81 1568.64 555.92 1569.18 556.26"/><line class="cls-2" x1="1541.21" y1="501" x2="1539.41" y2="511"/><line class="cls-2" x1="1526.46" y1="511.25" x2="1539.41" y2="511"/><line class="cls-2" x1="1548.47" y1="515.81" x2="1539.41" y2="511"/><line class="cls-2" x1="1544.97" y1="540.78" x2="1539.41" y2="511"/><line class="cls-2" x1="1526.81" y1="529.18" x2="1539.41" y2="511"/><line class="cls-2" x1="1548.7" y1="527.76" x2="1547.99" y2="542.72"/></g><g id="Layer_31"><polygon class="cls-1" points="773.5 832.63 929.5 759.39 1016.5 748.12 1177 652 1297 633 1402.5 540.5 1629.05 557.72 1768 614 1920.38 672.06 1919.5 1080.5 686 1080.5 773.5 832.63"/></g><g id="Layer_24"><polygon class="cls-13" points="367.22 411.53 367.34 412.56 348.58 438.54 315.42 426.32 359.21 402.58 367.22 411.53"/><polygon class="cls-12" points="365.65 398.16 367.22 411.53 359.21 402.58 365.65 398.16"/><polygon class="cls-6" points="365.65 398.16 359.21 402.58 345.78 398.79 353.08 396.69 365.65 398.16"/><polygon class="cls-12" points="331.75 403.27 331.68 402.84 345.78 398.79 359.21 402.58 315.42 426.32 286.89 415.81 287.01 415.49 291.26 409.23 322.28 404.66 331.75 403.27"/><polygon class="cls-12" points="331.68 402.84 331.75 403.27 322.28 404.66 322.27 404.64 328.4 368.28 336.52 368.19 331.68 402.84"/><polygon class="cls-6" points="336.59 367.74 336.52 368.19 328.4 368.28 328.45 367.94 332.24 354.47 336.59 367.74"/><polygon class="cls-13" points="322.27 404.64 322.28 404.66 291.26 409.23 318.97 368.39 328.4 368.28 322.27 404.64"/><polygon class="cls-6" points="328.45 367.94 328.4 368.28 318.97 368.39 332.24 354.47 328.45 367.94"/><polygon class="cls-12" points="332.24 354.47 318.97 368.39 312.81 361.61 313.2 361.16 332.24 354.47"/><polygon class="cls-13" points="291.26 409.23 287.01 415.49 286.89 415.81 270.92 409.92 312.81 361.61 318.97 368.39 291.26 409.23"/><polygon class="cls-2" points="286.89 415.81 270.92 409.92 312.81 361.61 313.2 361.16 332.24 354.47 336.59 367.74 336.52 368.19 331.68 402.84 345.78 398.79 353.08 396.69 365.65 398.16 367.22 411.53 367.34 412.56 348.58 438.54 315.42 426.32 286.89 415.81"/><polyline class="cls-2" points="312.63 361.41 312.81 361.61 318.97 368.39"/><polyline class="cls-2" points="336.69 368.19 336.52 368.19 328.4 368.28 318.97 368.39"/><polyline class="cls-2" points="287.01 415.49 291.26 409.23 318.97 368.39"/><polyline class="cls-2" points="332.02 403.23 331.75 403.27 322.28 404.66 291.26 409.23 290.83 409.3"/><polyline class="cls-2" points="359.21 402.58 345.78 398.79 344.78 398.51"/><polyline class="cls-2" points="367.91 412.29 367.22 411.53 359.21 402.58"/><polyline class="cls-2" points="315.08 426.51 315.42 426.32 359.21 402.58"/><line class="cls-2" x1="365.65" y1="398.16" x2="359.21" y2="402.58"/><line class="cls-2" x1="332.24" y1="354.47" x2="328.45" y2="367.94"/><line class="cls-2" x1="318.97" y1="368.39" x2="332.24" y2="354.47"/><polyline class="cls-2" points="328.45 367.94 328.4 368.28 322.27 404.64"/></g><g id="Layer_19"><polygon class="cls-10" points="761.65 792.56 774.28 719.68 806.93 808.9 806.98 808.89 807 808.99 758.16 812.71 761.19 795.24 761.65 792.56"/><polygon class="cls-10" points="806.98 808.89 806.93 808.9 774.28 719.68 785.66 711.52 806.98 808.89"/><polygon class="cls-10" points="758.16 812.71 730.54 814.82 730.54 814.77 746.74 777.32 743.15 771.2 743.8 770.82 759.89 748.6 760.35 760.21 761.19 795.24 758.16 812.71"/><polygon class="cls-11" points="761.65 792.56 760.35 760.21 759.45 722.05 774.28 719.68 761.65 792.56"/><polygon class="cls-10" points="730.54 814.77 730.54 814.82 724.89 815.25 724.88 815.04 724.13 808.37 738.6 777.99 746.74 777.32 730.54 814.77"/><polygon class="cls-10" points="724.13 808.37 724.88 815.04 724.89 815.25 722.41 815.44 687.29 806.82 687.38 806.46 684.05 765.79 704.49 770.77 721.84 792.08 722.29 792.03 724.13 808.37"/><polygon class="cls-11" points="760.35 760.21 759.89 748.6 752.01 742.89 752.05 742.78 750.85 715.82 759.45 722.05 760.35 760.21"/><polygon class="cls-11" points="746.74 777.32 738.6 777.99 731.29 763.95 734.53 756.46 743.15 771.2 746.74 777.32"/><polygon class="cls-11" points="738.6 777.99 724.13 808.37 722.29 792.03 719.9 770.76 731.29 763.95 738.6 777.99"/><polygon class="cls-8" points="759.89 748.6 743.8 770.82 743.15 771.2 734.53 756.46 734.27 756.27 746.79 738.98 752.05 742.78 752.01 742.89 759.89 748.6"/><polygon class="cls-11" points="785.66 711.52 774.28 719.68 764.32 685.14 785.66 711.52"/><polygon class="cls-11" points="719.9 770.76 722.29 792.03 721.84 792.08 704.49 770.77 697.85 733.17 718.4 761.57 718.59 761.31 718.85 761.5 719.9 770.76"/><polygon class="cls-8" points="774.28 719.68 759.45 722.05 764.32 685.14 774.28 719.68"/><polygon class="cls-8" points="734.53 756.46 731.29 763.95 719.9 770.76 718.85 761.5 718.59 761.31 721.28 757.59 734.25 756.3 734.27 756.27 734.53 756.46"/><polygon class="cls-8" points="764.32 685.14 759.45 722.05 750.85 715.82 764.32 685.14"/><polygon class="cls-10" points="687.38 806.46 687.29 806.82 651.9 798.13 684.05 765.79 687.38 806.46"/><polygon class="cls-8" points="704.49 770.77 684.05 765.79 697.85 733.17 704.49 770.77"/><polygon class="cls-8" points="697.85 733.17 684.05 765.79 669.24 748.51 697.85 733.17"/><polygon class="cls-11" points="684.05 765.79 651.9 798.13 637.96 794.71 669.24 748.51 684.05 765.79"/><polygon class="cls-3" points="651.9 798.13 637.96 794.71 669.24 748.51 697.85 733.17 718.4 761.57 718.59 761.31 721.28 757.59 734.25 756.3 734.27 756.27 746.79 738.98 752.05 742.78 750.85 715.82 764.32 685.14 785.66 711.52 806.98 808.89 807 808.99 758.16 812.71 730.54 814.82 724.89 815.25 722.41 815.44 687.29 806.82 651.9 798.13"/><line class="cls-3" x1="785.66" y1="711.52" x2="774.28" y2="719.68"/><line class="cls-3" x1="759.45" y1="722.05" x2="774.28" y2="719.68"/><line class="cls-3" x1="750.85" y1="715.82" x2="759.45" y2="722.05"/><line class="cls-3" x1="764.32" y1="685.14" x2="774.28" y2="719.68"/><line class="cls-3" x1="759.45" y1="722.05" x2="764.32" y2="685.14"/><polyline class="cls-3" points="758.13 812.9 758.16 812.71 761.19 795.24 761.65 792.56 774.28 719.68"/><line class="cls-3" x1="806.93" y1="808.9" x2="774.28" y2="719.68"/><polyline class="cls-3" points="761.22 796.56 761.19 795.24 760.35 760.21 759.45 722.05"/><line class="cls-3" x1="752.01" y1="742.89" x2="759.89" y2="748.6"/><line class="cls-3" x1="743.8" y1="770.82" x2="759.89" y2="748.6"/><polyline class="cls-3" points="762.01 801.5 761.65 792.56 760.35 760.21 759.89 748.6"/><polyline class="cls-3" points="734.53 756.46 743.15 771.2 746.74 777.32"/><line class="cls-3" x1="730.54" y1="814.77" x2="746.74" y2="777.32"/><line class="cls-3" x1="731.29" y1="763.95" x2="734.53" y2="756.46"/><line class="cls-3" x1="738.6" y1="777.99" x2="746.74" y2="777.32"/><polyline class="cls-3" points="718.85 761.5 719.9 770.76 722.29 792.03 724.13 808.37 724.88 815.04"/><line class="cls-3" x1="738.6" y1="777.99" x2="731.29" y2="763.95"/><polyline class="cls-3" points="719.72 770.87 719.9 770.76 731.29 763.95"/><polyline class="cls-3" points="723.89 808.86 724.13 808.37 738.6 777.99"/><line class="cls-3" x1="697.85" y1="733.17" x2="704.49" y2="770.77"/><line class="cls-3" x1="721.84" y1="792.08" x2="704.49" y2="770.77"/><line class="cls-3" x1="684.05" y1="765.79" x2="704.49" y2="770.77"/><line class="cls-3" x1="697.85" y1="733.17" x2="684.05" y2="765.79"/><line class="cls-3" x1="669.24" y1="748.51" x2="684.05" y2="765.79"/><polyline class="cls-3" points="651.83 798.2 651.9 798.13 684.05 765.79"/><line class="cls-3" x1="687.38" y1="806.46" x2="684.05" y2="765.79"/></g><g id="Layer_8"><polygon class="cls-4" points="0 661.7 92.5 587.5 138.5 460.5 263.5 394.5 371.5 448.5 384.86 520.46 476.5 592.5 488.5 667.34 542.5 767.5 653 798.32 767.58 798.32 1329.5 915.23 1516.87 1080 0 1080 0 661.7"/></g></svg>