<?xml version="1.0" encoding="UTF-8"?><svg id="Layer_11" xmlns="http://www.w3.org/2000/svg" width="1648.23" height="922.55" viewBox="0 0 1648.23 922.55"><defs><style>.cls-1{fill:none;stroke:#000;stroke-linecap:round;stroke-linejoin:round;stroke-width:.5px;}.cls-2{fill:#564862;}.cls-2,.cls-3,.cls-4,.cls-5{stroke-width:0px;}.cls-3{fill:#372947;}.cls-4{fill:#433351;}.cls-5{fill:#4e405d;}</style></defs><polygon class="cls-5" points="925.9 167.42 1164.74 483.78 982.47 534.06 865.15 379.03 925.9 167.42"/><polygon class="cls-4" points="1164.74 483.78 1021.96 783.1 867.22 641.47 982.47 534.06 1164.74 483.78"/><polygon class="cls-3" points="867.22 641.47 1021.96 783.1 1021.83 783.37 548.79 802.23 640.95 672.9 641.37 672.44 641.41 672.48 866.19 641.64 867.22 641.47"/><polygon class="cls-2" points="552.58 592.68 552.42 592.53 642.08 397.21 643.07 397.88 865.15 379.03 982.47 534.06 867.22 641.47 866.19 641.64 641.41 672.48 641.37 672.44 552.58 592.68"/><polygon class="cls-5" points="642.08 397.21 475.46 282.65 925.9 167.42 865.15 379.03 643.07 397.88 642.08 397.21"/><polygon class="cls-4" points="642.08 397.21 552.42 592.53 552.58 592.68 326.74 571.77 326.23 571.25 475.46 282.65 642.08 397.21"/><polygon class="cls-3" points="641.37 672.44 640.95 672.9 548.79 802.23 326.74 571.77 552.58 592.68 641.37 672.44"/><polyline class="cls-1" points="642.21 396.96 642.08 397.21 552.42 592.53 552.58 592.68 641.37 672.44 641.41 672.48 866.19 641.64"/><polygon class="cls-1" points="475.46 282.65 326.23 571.25 326.74 571.77 548.79 802.23 1021.83 783.37 1021.96 783.1 1164.74 483.78 925.9 167.42 475.46 282.65"/><line class="cls-1" x1="925.9" y1="167.42" x2="865.15" y2="379.03"/><line class="cls-1" x1="1164.74" y1="483.78" x2="982.47" y2="534.06"/><polyline class="cls-1" points="1022.27 783.37 1021.96 783.1 867.22 641.47"/><line class="cls-1" x1="548.79" y1="802.23" x2="640.95" y2="672.9"/><polyline class="cls-1" points="326.71 571.77 326.74 571.77 552.58 592.68 552.98 592.72"/><polyline class="cls-1" points="475.46 282.65 642.08 397.21 643.07 397.88"/><line class="cls-1" x1="643.07" y1="397.88" x2="865.15" y2="379.03"/><line class="cls-1" x1="867.22" y1="641.47" x2="982.47" y2="534.06"/><line class="cls-1" x1="865.15" y1="379.03" x2="982.47" y2="534.06"/></svg>