<?xml version="1.0" encoding="UTF-8"?><svg id="Layer_13" xmlns="http://www.w3.org/2000/svg" width="1648.23" height="922.55" viewBox="0 0 1648.23 922.55"><defs><style>.cls-1{fill:none;stroke:#000;stroke-linecap:round;stroke-linejoin:round;stroke-width:.5px;}.cls-2{fill:#564862;}.cls-2,.cls-3,.cls-4,.cls-5{stroke-width:0px;}.cls-3{fill:#372947;}.cls-4{fill:#433351;}.cls-5{fill:#4e405d;}</style></defs><polygon class="cls-5" points="632.59 92.25 842.68 80.36 699.46 241.72 697.15 246.43 690.92 243.38 690.88 243.36 632.59 92.25"/><polygon class="cls-5" points="842.68 80.36 1129.42 360.85 995.29 392.43 697.15 246.43 699.46 241.72 842.68 80.36"/><polygon class="cls-5" points="632.59 92.25 690.88 243.36 690.92 243.38 592.62 455.92 448.78 543.06 632.59 92.25"/><polygon class="cls-4" points="995.29 392.43 1129.42 360.85 847.24 873.5 846.89 873.5 844.26 744.52 995.29 392.43"/><polygon class="cls-2" points="697.15 246.43 995.29 392.43 844.26 744.52 681.08 759.93 592.62 455.92 690.92 243.38 697.15 246.43"/><polygon class="cls-4" points="592.62 455.92 681.08 759.93 601.37 875.38 448.78 543.06 592.62 455.92"/><polygon class="cls-3" points="681.08 759.93 844.26 744.52 846.89 873.5 601.75 876.23 601.37 875.38 681.08 759.93"/><polygon class="cls-1" points="681.08 759.93 844.26 744.52 995.29 392.43 697.15 246.43 690.92 243.38 592.62 455.92 681.08 759.93"/><polygon class="cls-1" points="846.89 873.5 601.75 876.23 601.37 875.38 448.78 543.06 632.59 92.25 842.68 80.36 1129.42 360.85 847.24 873.5 846.89 873.5"/><polyline class="cls-1" points="681.08 759.93 601.37 875.38 600.78 876.24"/><line class="cls-1" x1="448.78" y1="543.06" x2="592.62" y2="455.92"/><line class="cls-1" x1="690.88" y1="243.36" x2="632.59" y2="92.25"/><line class="cls-1" x1="842.68" y1="80.36" x2="699.46" y2="241.72"/><line class="cls-1" x1="1129.42" y1="360.85" x2="995.29" y2="392.43"/><polyline class="cls-1" points="846.9 874.21 846.89 873.5 844.26 744.52"/></svg>