<?xml version="1.0" encoding="UTF-8"?><svg id="Layer_14" xmlns="http://www.w3.org/2000/svg" width="1648.23" height="923.79" viewBox="0 0 1648.23 923.79"><defs><style>.cls-1{fill:#564862;}.cls-1,.cls-2,.cls-3,.cls-4{stroke-width:0px;}.cls-2{fill:#372947;}.cls-5{fill:none;stroke:#000;stroke-linecap:round;stroke-linejoin:round;stroke-width:3px;}.cls-3{fill:#433351;}.cls-4{fill:#4e405d;}</style></defs><polygon class="cls-4" points="393.28 326.82 702.84 4.99 791.11 198.84 639.46 356.87 393.28 326.82"/><polygon class="cls-4" points="702.84 4.99 1061.16 110.73 931.03 308 791.11 198.84 702.84 4.99"/><polygon class="cls-3" points="931.03 308 1061.16 110.73 1061.48 110.82 1166.38 633.72 1006.13 554.14 1005.57 553.78 1005.61 553.72 931.42 309.11 931.03 308"/><polygon class="cls-1" points="932.59 666.66 932.43 666.9 699.24 601.82 699.83 600.57 639.46 356.87 791.11 198.84 931.03 308 931.42 309.11 1005.61 553.72 1005.57 553.78 932.59 666.66"/><polygon class="cls-3" points="699.24 601.82 601.38 807.47 393.28 326.82 639.46 356.87 699.83 600.57 699.24 601.82"/><polygon class="cls-2" points="699.24 601.82 932.43 666.9 932.59 666.66 949.4 921.64 948.9 922.29 601.38 807.47 699.24 601.82"/><polygon class="cls-2" points="1005.57 553.78 1006.13 554.14 1166.38 633.72 949.4 921.64 932.59 666.66 1005.57 553.78"/><polyline class="cls-5" points="698.94 601.72 699.24 601.82 932.43 666.9 932.59 666.66 1005.57 553.78 1005.61 553.72 931.42 309.11"/><polygon class="cls-5" points="601.38 807.47 948.9 922.29 949.4 921.64 1166.38 633.72 1061.48 110.82 1061.16 110.73 702.84 4.99 393.28 326.82 601.38 807.47"/><line class="cls-5" x1="393.28" y1="326.82" x2="639.46" y2="356.87"/><line class="cls-5" x1="702.84" y1="4.99" x2="791.11" y2="198.84"/><polyline class="cls-5" points="1061.4 110.33 1061.16 110.73 931.03 308"/><line class="cls-5" x1="1166.38" y1="633.72" x2="1006.13" y2="554.14"/><polyline class="cls-5" points="949.4 921.66 949.4 921.64 932.59 666.66 932.57 666.23"/><polyline class="cls-5" points="601.38 807.47 699.24 601.82 699.83 600.57"/><line class="cls-5" x1="699.83" y1="600.57" x2="639.46" y2="356.87"/><line class="cls-5" x1="931.03" y1="308" x2="791.11" y2="198.84"/><line class="cls-5" x1="639.46" y1="356.87" x2="791.11" y2="198.84"/></svg>