<?xml version="1.0" encoding="UTF-8"?><svg id="Layer_12" xmlns="http://www.w3.org/2000/svg" width="1648.23" height="992.79" viewBox="0 0 1648.23 992.79"><defs><style>.cls-1{fill:#302241;}.cls-1,.cls-2,.cls-3,.cls-4{stroke-width:0px;}.cls-2{fill:#2a1939;}.cls-3{fill:#372947;}.cls-5{fill:none;stroke:#000;stroke-linecap:round;stroke-linejoin:round;stroke-width:3px;}.cls-4{fill:#433351;}</style></defs><polygon class="cls-1" points="384.51 522.21 415.57 325.98 535.81 490.41 539.69 493.48 535.62 498.63 535.6 498.66 384.51 522.21"/><polygon class="cls-3" points="415.57 325.98 731.74 117.51 734.05 247.6 539.69 493.48 535.81 490.41 415.57 325.98"/><polygon class="cls-2" points="384.51 522.21 535.6 498.66 535.62 498.63 712.08 631.85 763.71 782 384.51 522.21"/><polygon class="cls-3" points="734.05 247.6 731.74 117.51 1148.32 480.43 1148.26 480.76 1028.71 457.38 734.05 247.6"/><polygon class="cls-4" points="539.69 493.48 734.05 247.6 1028.71 457.38 1010.29 611.04 712.08 631.85 535.62 498.63 539.69 493.48"/><polygon class="cls-1" points="712.08 631.85 1010.29 611.04 1100.88 707.68 763.71 782 712.08 631.85"/><polygon class="cls-1" points="1010.29 611.04 1028.71 457.38 1148.26 480.76 1101.74 707.5 1100.88 707.68 1010.29 611.04"/><polygon class="cls-5" points="1010.29 611.04 1028.71 457.38 734.05 247.6 539.69 493.48 535.62 498.63 712.08 631.85 1010.29 611.04"/><polygon class="cls-5" points="1148.26 480.76 1101.74 707.5 1100.88 707.68 763.71 782 384.51 522.21 415.57 325.98 731.74 117.51 1148.32 480.43 1148.26 480.76"/><polyline class="cls-5" points="1010.29 611.04 1100.88 707.68 1101.55 708.4"/><line class="cls-5" x1="763.71" y1="782" x2="712.08" y2="631.85"/><line class="cls-5" x1="535.6" y1="498.66" x2="384.51" y2="522.21"/><line class="cls-5" x1="415.57" y1="325.98" x2="535.81" y2="490.41"/><line class="cls-5" x1="731.74" y1="117.51" x2="734.05" y2="247.6"/><polyline class="cls-5" points="1148.91 480.9 1148.26 480.76 1028.71 457.38"/></svg>